<?xml version="1.0" encoding="UTF-8"?>
<svg viewBox="0 0 400 400" xmlns="http://www.w3.org/2000/svg">
 <g transform="rotate(41.406 297.09 66.717)" fill="#00ff7f" stroke="#000" stroke-dasharray="null" stroke-linecap="null" stroke-linejoin="null" stroke-width="5">
  <ellipse transform="rotate(-20.556 282.5 56.5)" cx="282.5" cy="56.5" rx="7" ry="14"/>
  <ellipse cx="292.5" cy="81" rx="16" ry="11.5"/>
  <ellipse transform="rotate(243.44 307.5 62)" cx="307.5" cy="62" rx="7" ry="14"/>
 </g>
 <g transform="matrix(.652 0 0 .652 -51.231 -96.825)" stroke="#000" stroke-opacity=".991">
  <g fill-rule="evenodd" stroke-width="1.25">
   <path d="m382.03 455.17c-9.696 7.373-11.853 9.849-17.211 18.008-1.939 3.149-5.56 10.508-6.55 15.445-0.98901 4.936-1.73 12.098-1.727 15.891 0.011993 12.853 4.103 20.916 8.571 20.635 3.992-0.45801 9.072-4.621 16.77-14.076"/>
   <path d="m389.01 455.37c9.696 7.373 11.853 9.849 17.211 18.008 1.939 3.149 5.56 10.508 6.55 15.445 0.98901 4.936 1.73 12.098 1.727 15.891-0.011993 12.853-4.103 20.916-8.571 20.635-3.992-0.45801-9.072-4.621-16.77-14.076" stroke-linejoin="bevel"/>
   <path d="m299.61 399.02c13.46-2.359 26.503-3.885 39.963-5.411 17.623-4.441 26.504 15.68 21.647 30.805-6.105 13.46-14.708 25.255-24.56 36.633-7.632 8.603-16.724 9.995-25.394 7.076-6.998-1.94-13.461-6.243-20.399-16.234-3.052-8.604-5.688-13.045-9.574-23.729-3.052-9.852 1.695-24.6 18.317-29.14z"/>
   <path d="m471.69 399.02c-13.46-2.359-26.503-3.885-39.963-5.411-17.623-4.441-26.504 15.68-21.647 30.805 6.105 13.46 14.708 25.255 24.56 36.633 7.632 8.603 16.724 9.995 25.394 7.076 6.998-1.94 13.461-6.243 20.399-16.234 3.052-8.604 5.688-13.045 9.574-23.729 3.052-9.852-1.695-24.6-18.317-29.14z"/>
  </g>
  <g fill="none">
   <g fill-rule="evenodd">
    <path d="m299.36 513.98c5.69 13.344 7.45 18.415 11.553 31.718 3.496 12.289 4.781 19.794 6.941 37.258" stroke-width="6.25"/>
    <path d="m471.22 513.25c-5.69 13.344-7.45 18.415-11.553 31.718-3.496 12.289-4.781 19.794-6.941 37.258" stroke-width="6.25"/>
    <path d="m323.65 545.19c14.718 9.027 40.161 10.419 62.956 10.009 25.394-0.12897 47.133-1.963 61.409-10.597" stroke-width="5"/>
    <path d="m328.8 568.74c16.238 10.204 35.334 13.708 57.326 12.878 22.842-0.55603 40.351-2.478 56.001-13.172" stroke-width="5"/>
    <path d="m317.02 581.1c17.367 20.948 41.608 24.585 69.173 25.315 29.519 1.077 59.166-10.645 66.819-25.314" stroke-width="6.25"/>
    <g stroke-width="5">
     <path d="m328.57 549.71l-0.416 41.212"/>
     <path d="m342.1 554.08l-0.208 44.126"/>
     <path d="m357.09 555.95l-0.416 46.208"/>
     <path d="m370.62 557l-0.209 46.832"/>
     <path d="m385.81 557.41v46.832"/>
     <path d="m400.38 557.2l0.208 46.832"/>
     <path d="m413.5 555.95l0.416 46"/>
     <path d="m428.69 553.46l0.208 44.126"/>
     <path d="m442.43 548.05l0.417 41.628"/>
    </g>
    <g stroke-width="12.5">
     <path d="m258.63 431.02c-19.136-18.603-32.51-50.888-34.366-85.752-2.015-38.42 18.218-76.57 48.537-98.319 33.969-23.909 90.766-30.522 126.08-28.738 23.921 0.016602 77.206 12.42 96.015 26.428 32.994 23.99 50.688 58.04 51.914 96.85 1.813 38.983-14.606 68.675-34.711 87.206" stroke-linecap="round" stroke-linejoin="round"/>
     <path d="m259.79 321.72c-7.752 6.782-6.774 16.977-5.378 32.192 1.102 11.56 8.478 22.939 8.866 33.5 2.712 22.285-3.876 44.57-6.977 62.786-2.132 20.928 3.877 38.95 11.628 45.926 7.751 6.88 17.756 9.729 28.268 12.936 9.551 2.498 14.504 6.842 21.728 12.228 8.606 9.137 10.659 16.694 10.465 25.996" stroke-linejoin="round"/>
     <path d="m512.19 321.14c7.752 6.782 6.774 16.977 5.378 32.192-1.102 11.56-8.478 22.939-8.866 33.5-2.712 22.285 3.876 44.57 6.977 62.786 2.132 20.928-3.877 38.95-11.628 45.926-7.751 6.88-21.937 10.575-28.268 12.936-7.377 2.581-14.92 7.258-21.728 12.644-8.19 7.888-10.659 16.278-10.465 25.58" stroke-linejoin="round"/>
     <path d="m281.95 506.41c6.938 16.79 14.292 33.164 14.986 50.37-3.191 13.876-2.22 30.25 1.249 43.294 4.441 17.9 21.786 39.13 39.132 46.207 17.761 6.452 28.862 8.118 48.704 8.118"/>
     <path d="m489.05 506.41c-6.938 16.79-14.292 33.164-14.986 50.37 3.191 13.876 2.22 30.25-1.249 43.294-4.441 17.9-21.994 38.506-39.34 45.583-17.345 7.077-28.445 8.7419-48.288 8.7419"/>
    </g>
   </g>
   <g stroke-linejoin="round" stroke-width="12.5">
    <path d="m478.44 585.09l68.272 31.638c8.325 3.469 14.985 2.359 21.23 0.41602 9.852-2.9141 17.622-1.248 25.809 2.082 9.852 4.995 10.131 12.072 3.748 19.149-5.828 6.799-11.657 10.268-18.733 17.067-1.527 10.962-0.55597 21.092-5.413 31.222-6.105 8.88-12.627 7.354-22.895-2.082-10.407-8.049-6.661-16.929-21.647-29.973l-63.276-32.886"/>
    <path d="m291.94 584.67c-22.757 12.072-43.432 23.311-69.519 33.302-21.231 5.273-20.398-7.77-46.208 0.83301-7.3544 5.828-7.2156 14.153-1.2488 20.397 6.9382 6.7999 11.795 11.102 17.901 17.069 1.943 8.603 2.22 15.957 3.33 26.225 4.163 12.628 13.321 11.934 21.23 5.829 3.469-4.302 7.771-8.187 10.407-12.905 3.608-6.244 7.632-13.321 12.489-19.149l62.859-33.303"/>
    <path d="m488.43 516.82c25.81-12.766 47.04-23.035 70.352-34.552 14.292-11.933 10.685-23.451 22.064-32.054 11.239-10.685 18.732-8.048 22.895-2.081 4.024 10.129 5.967 20.259 5.412 30.805 10.684 9.852 16.374 15.541 22.48 24.562 0.83197 11.378-9.159 16.095-21.231 16.234-15.819 2.9139-18.317-7.077-36.217 0l-94.497 44.542" stroke-linecap="square"/>
    <path d="m284.35 517.81c-26.1-12.756-47.784-22.274-73.59-36.501-14.031-11.186-9.517-23.844-26.492-34.146-7.4571-3.728-12.854-5.396-18.839 4.71-3.8267 9.028-3.5323 18.643-4.121 27.965-6.6721 7.162-14.227 11.382-19.722 20.311-7.9477 12.756 4.1209 16.975 10.597 18.545 18.446 4.611 25.118-3.729 42.093-0.29504 33.067 15.405 66.427 31.398 98.316 47.097"/>
   </g>
  </g>
 </g>
 <g stroke="#000" stroke-dasharray="null" stroke-linecap="null" stroke-linejoin="null" stroke-width="5">
  <ellipse cx="383" cy="50" rx="4" fill="#f00"/>
  <path d="m120 220h160l-20 46-8 48-42 21-60-19-9-47-21-49z" fill="#00ff7f"/>
  <line x1="97.5" x2="303" y1="134" y2="134.5" fill="none"/>
 </g>
</svg>
